# xmcd
#
# Track frame offsets: 
#        150
#        25597
#        42742
#        64115
#        91977
#        110215
#        132297
#        155577
#        177422
#        201077
#        235085
#
# Disc length: 3403 seconds
#
# Revision: 1
# Processed by: cddbd v1.5.2PL0 Copyright (c) Steve Scherf et al.
# Submitted via: ExactAudioCopy v0.95a5
#
DISCID=980d490b
DTITLE=Barry Harris - At The Jazz Workshop
DYEAR=1997
DGENRE=Jazz
TTITLE0=Is You Is Or Is You Ain't My Baby (Take 2)
TTITLE1=Curtain Call
TTITLE2=Star Eyes
TTITLE3=Moose The Mooche
TTITLE4=Lolita
TTITLE5=Morning Coffee
TTITLE6=Don't Blame Me (Take 2)
TTITLE7=Woody'n You (Take 2)
TTITLE8=Is You Is Or Is You Ain't My Baby (Take 1)
TTITLE9=Don't Blame Me (Take 1)
TTITLE10=Woody'n You (Take 1)
EXTD=YEAR: 1997
EXTT0=
EXTT1=
EXTT2=
EXTT3=
EXTT4=
EXTT5=
EXTT6=
EXTT7=
EXTT8=
EXTT9=
EXTT10=
PLAYORDER=
